<?xml version="1.0" encoding="UTF-8"?>
<!DOCTYPE svg PUBLIC "-//W3C//DTD SVG 1.1//EN" "http://www.w3.org/Graphics/SVG/1.1/DTD/svg11.dtd">
<svg xmlns="http://www.w3.org/2000/svg" version="1.1" width="512px" height="512px" style="shape-rendering:geometricPrecision; text-rendering:geometricPrecision; image-rendering:optimizeQuality; fill-rule:evenodd; clip-rule:evenodd" xmlns:xlink="http://www.w3.org/1999/xlink">
<g><path style="opacity:1" fill="#ef4822" d="M 231.5,-0.5 C 247.5,-0.5 263.5,-0.5 279.5,-0.5C 378.736,12.9136 449.569,64.9136 492,155.5C 501.976,180.073 508.476,205.406 511.5,231.5C 511.5,247.5 511.5,263.5 511.5,279.5C 498.086,378.736 446.086,449.569 355.5,492C 330.927,501.976 305.594,508.476 279.5,511.5C 263.5,511.5 247.5,511.5 231.5,511.5C 132.264,498.086 61.431,446.086 19,355.5C 9.02417,330.927 2.52417,305.594 -0.5,279.5C -0.5,263.5 -0.5,247.5 -0.5,231.5C 12.9136,132.264 64.9136,61.431 155.5,19C 180.073,9.02417 205.406,2.52417 231.5,-0.5 Z M 247.5,39.5 C 342.486,40.8815 410.986,83.8815 453,168.5C 480.792,236.946 476.459,303.28 440,367.5C 387.089,446.361 313.256,479.861 218.5,468C 144.186,452.676 90.6861,410.842 58,342.5C 30.2076,274.054 34.5409,207.72 71,143.5C 112.479,79.667 171.313,45.0004 247.5,39.5 Z"/></g>
<g><path style="opacity:1" fill="#ee4822" d="M 251.5,117.5 C 263.08,116.862 270.913,121.862 275,132.5C 275.333,170.5 275.667,208.5 276,246.5C 300.667,265.167 325.333,283.833 350,302.5C 356.845,311.246 357.179,320.246 351,329.5C 342.227,337.864 332.727,339.031 322.5,333C 296.167,313.333 269.833,293.667 243.5,274C 240.567,271.736 238.4,268.902 237,265.5C 235.349,221.226 235.016,176.892 236,132.5C 238.42,124.578 243.587,119.578 251.5,117.5 Z"/></g>
</svg>
