<svg width="135" height="64" viewBox="0 0 135 64" fill="none" xmlns="http://www.w3.org/2000/svg">
<path d="M116.196 25.6937C112.619 25.6937 109.608 22.6607 109.608 19.0562V0.247478H105.261V19.0562C105.261 22.6607 102.25 25.6937 98.6727 25.6937H80.002V30.0725H98.6727C102.25 30.0725 105.261 33.1055 105.261 36.7097V55.5187H109.608V36.71C109.608 33.1055 112.619 30.0725 116.196 30.0725H134.867V25.6937H116.196Z" fill="#F04923"/>
<path d="M19.6107 25.6987H0.248169V31.419H24.5111C25.482 31.419 26.4004 32.4676 26.4004 33.5758L26.3906 41.6769H4.24726V47.3972L26.4004 47.4087V55.4986C26.4004 56.6068 25.4823 57.6547 24.5124 57.6547H0.248169V63.375H19.6107C26.8839 63.375 32.5815 57.7467 32.5815 50.5616V38.5125C32.5815 31.327 26.8839 25.6987 19.6107 25.6987Z" fill="#00504E"/>
<path d="M66.2527 25.6987V41.7129H43.9088V25.6987H37.8012V63.375H43.9088V47.3657H66.2527V63.375H72.3599V25.6987H66.2527Z" fill="#00504E"/>
</svg>
